<?xml version="1.0" standalone="no"?><!DOCTYPE svg PUBLIC "-//W3C//DTD SVG 1.1//EN" "http://www.w3.org/Graphics/SVG/1.1/DTD/svg11.dtd"> <svg class="icon" width="200px" height="200.00px" viewBox="0 0 1024 1024" version="1.1" xmlns="http://www.w3.org/2000/svg"><path d="M794.752 137.365333L733.696 198.4A382.250667 382.250667 0 0 0 512 128C299.925333 128 128 299.925333 128 512s171.925333 384 384 384 384-171.925333 384-384c0-83.285333-26.517333-160.384-71.573333-223.317333l61.013333-61.013334A467.285333 467.285333 0 0 1 981.333333 512c0 259.2-210.133333 469.333333-469.333333 469.333333S42.666667 771.2 42.666667 512 252.8 42.666667 512 42.666667c106.176 0 204.117333 35.264 282.752 94.698666zM512 270.634667L753.365333 512 512 753.365333 270.634667 512 512 270.634667z m0 120.682666L391.317333 512 512 632.682667 632.682667 512 512 391.317333z"></path></svg>